<?xml version="1.0" encoding="UTF-8"?> <svg xmlns="http://www.w3.org/2000/svg" id="Calque_1" data-name="Calque 1" viewBox="0 0 63 73"><defs><style>.cls-1{fill:#4398fd;}</style></defs><path class="cls-1" d="M22.66,43.41V13.85h9.57a34.26,34.26,0,0,1,7.1.45,7.7,7.7,0,0,1,4.25,2.89A9.18,9.18,0,0,1,45.3,23a9.59,9.59,0,0,1-1,4.57,8.08,8.08,0,0,1-2.51,2.91,8.48,8.48,0,0,1-3.1,1.4,33.12,33.12,0,0,1-6.18.43H28.63V43.41Zm6-24.56v8.39h3.26a15.08,15.08,0,0,0,4.72-.47,3.85,3.85,0,0,0,1.86-1.45A3.94,3.94,0,0,0,39.15,23a3.8,3.8,0,0,0-.95-2.66,4.15,4.15,0,0,0-2.4-1.32,29.31,29.31,0,0,0-4.29-.2Z"></path><path class="cls-1" d="M31.65.78h-.14A26.64,26.64,0,0,0,4.89,27.45a36.66,36.66,0,0,0,5.22,17.1c4.94,7.77,19.36,24.88,21.48,27.38v.17l.07-.08.07.08v-.17c2.11-2.5,16.49-19.65,21.41-27.42a36.48,36.48,0,0,0,5.18-17.12A26.64,26.64,0,0,0,31.65.78Zm-.18,49a21.94,21.94,0,1,1,22-21.94A21.93,21.93,0,0,1,31.47,49.78Z"></path></svg> 