<svg width="22" height="22" viewBox="0 0 22 22" fill="none" xmlns="http://www.w3.org/2000/svg">
<path d="M16.8272 16.8773C17.5952 16.1092 18.7473 15.8872 19.7193 16.2952C20.0043 16.3912 20.3223 16.5953 20.5863 16.8563C21.0664 17.3363 21.3274 17.9934 21.3274 18.7134C21.3274 19.4304 21.0664 20.0905 20.5893 20.5675C20.0523 21.0686 19.3983 21.3386 18.7323 21.3386C18.0302 21.3386 17.4002 21.0836 16.8572 20.5795C16.6202 20.3425 16.4402 20.0695 16.2902 19.7335C16.1282 19.3674 16.1072 18.9774 16.1072 18.7134C16.1072 18.4494 16.1282 18.0564 16.2902 17.6903C16.4432 17.3513 16.6682 17.0633 16.8272 16.8773ZM16.8623 1.43193C17.8853 0.411856 19.5504 0.411856 20.5734 1.43193C21.5965 2.458 21.5965 4.12011 20.5734 5.14618L5.15288 20.5672C4.65786 21.0623 4.00084 21.3353 3.29881 21.3353C2.59679 21.3353 1.93976 21.0623 1.44175 20.5672C0.41871 19.5412 0.41871 17.876 1.44175 16.853L16.8623 1.43193ZM2.32168 0.865187C3.22771 0.451158 4.43075 0.694174 5.14478 1.44423C5.39979 1.69924 5.5948 1.97826 5.7238 2.26928C5.8648 2.5813 5.93681 2.93533 5.93681 3.29235C5.93681 4.0064 5.6518 4.66945 5.12978 5.15548C4.63476 5.65051 3.99274 5.91753 3.28171 5.91753C2.61569 5.91753 1.96166 5.64451 1.43665 5.15248C0.938627 4.65744 0.656616 3.9794 0.656616 3.29235C0.656616 2.63831 0.932628 1.96626 1.41865 1.44723C1.68566 1.17721 2.00367 0.973194 2.32168 0.865187Z" fill="white"/>
</svg>
