<svg width="60" height="60" viewBox="0 0 60 60" fill="none" xmlns="http://www.w3.org/2000/svg">
<path d="M29.9989 60C27.6918 60 25.3877 59.1239 23.6266 57.3748L21.4366 55.1847C20.5875 54.3386 19.4505 53.8706 18.2444 53.8676H15.1633C10.1831 53.8676 6.13 49.8143 6.13 44.834V41.7498C6.127 40.5467 5.65899 39.4096 4.80995 38.5545L2.65588 36.4034C-0.872251 32.8962 -0.887251 27.1628 2.62288 23.6315L4.81295 21.4384C5.65899 20.5893 6.127 19.4522 6.13 18.2462V15.1679C6.13 10.1846 10.1831 6.13133 15.1633 6.13133H18.2474C19.4505 6.13133 20.5845 5.6633 21.4396 4.80824L23.5966 2.65709C27.1038 -0.87115 32.834 -0.889151 36.3681 2.62409L38.5582 4.81424C39.4102 5.6633 40.5442 6.13133 41.7473 6.13133H44.8314C49.8116 6.13133 53.8647 10.1846 53.8647 15.1679V18.2492C53.8677 19.4522 54.3357 20.5893 55.1848 21.4444L57.3389 23.5985C59.0459 25.2966 59.9909 27.5588 60 29.974C60.0059 32.3741 59.0819 34.6333 57.3988 36.3404C57.3688 36.3704 57.3419 36.4034 57.3118 36.4304L55.1818 38.5605C54.3357 39.4096 53.8677 40.5467 53.8647 41.7528V44.834C53.8647 49.8143 49.8116 53.8676 44.8314 53.8676H41.7473C40.5442 53.8706 39.4072 54.3386 38.5552 55.1877L36.3981 57.3418C34.64 59.1119 32.3179 60 29.9989 60Z" fill="#FF9900"/>
</svg>
